<svg xmlns="http://www.w3.org/2000/svg" viewBox="0 0 597.48 161.08"><defs><style>.cls-1,.cls-2{fill:#ff3100;}.cls-2{font-size:117.48px;}.cls-2,.cls-3{font-family:Sansation-Bold, Sansation;font-weight:700;}.cls-3{font-size:14.8px;fill:#fff;}</style></defs><title>logo_qatar</title><g id="Layer_2" data-name="Layer 2"><g id="Layer_1-2" data-name="Layer 1"><path id="_Compound_Path_" data-name="&lt;Compound Path&gt;" class="cls-1" d="M135.65,161c-2.2,0-4.41-.08-6.6,0a1.86,1.86,0,0,1-2.12-1.48,46.73,46.73,0,0,0-9.58-16.24,50.17,50.17,0,0,0-31.7-16.82,56.41,56.41,0,0,0-7.71-.29c-13.75.11-25.24-5.15-34.82-14.82A46.12,46.12,0,0,1,30,83.77C27.36,62.22,38.61,44.13,55.75,35A47.63,47.63,0,0,1,75,29.81a46.1,46.1,0,0,1,30.67,8.54c11,7.78,18,18.38,20,31.78,2.77,18.29-3.22,33.45-17.29,45.42-1.07.91-1.13,1.3.2,1.87a41.53,41.53,0,0,1,10.95,7,1.51,1.51,0,0,0,2.41,0A62.41,62.41,0,0,0,134.85,107a63.28,63.28,0,0,0,6.94-29q-.28-28.46-21.38-47.69A61,61,0,0,0,85.32,14.58,62.15,62.15,0,0,0,37.83,28.44c-12.9,10.4-20.37,23.82-22.92,40.05a63.68,63.68,0,0,0,46.4,71.12,62.37,62.37,0,0,0,34.15-.18,7.71,7.71,0,0,1,9.77,8.58c-.36,2.71-2.12,3.93-4.5,4.62a80.68,80.68,0,0,1-26.19,3.28,76.08,76.08,0,0,1-40-13.08C17.09,131,6.22,114.57,1.49,94.09A73.61,73.61,0,0,1,0,78.91,74.51,74.51,0,0,1,16,30.59C23.72,20.67,33.09,12.44,44.8,7.34,53.59,3.52,62.68.79,72.35.18,92-1.06,109.71,4.11,125.38,16c15.27,11.62,25.14,27,28.84,45.65,5.23,26.4-1.12,50-19.61,69.9-.91,1-1.79,2-2.77,2.92-.7.65-.57,1.12,0,1.76,1.1,1.32,2.16,2.67,3.21,4,4.46,5.69,7,12.24,8.58,19.21.28,1.23.14,1.62-1.19,1.57C140.16,161,137.9,161,135.65,161ZM77.15,110.27a32.26,32.26,0,1,0,1-64.52A32,32,0,0,0,45.79,78.3C45.55,95.27,60,109.82,77.15,110.27Z"/><g id="_Group_" data-name="&lt;Group&gt;"><text class="cls-2" transform="translate(182.45 117.76)">QATAR</text></g><text class="cls-3" transform="translate(270.84 139.91) scale(1.04 1)"><tspan xml:space="preserve">DISEÑO E INGENIERÍA EN ACCESORIOS  4X4</tspan></text></g></g></svg>